<svg xmlns="http://www.w3.org/2000/svg" xmlns:xlink="http://www.w3.org/1999/xlink" version="1.1" x="0px" y="0px" viewBox="0 0 96 120.00125" enable-background="new 0 0 96 96.001" xml:space="preserve"><path d="M23.25,91.251h15.5h1.5h15.5h1.5h15.5h1.5h17v-17v-1.5v-15.5v-1.5v-15.5v-1.5v-15.5v-1.5v-17h-17h-1.5h-15.5h-1.5h-15.5  h-1.5h-15.5h-1.5h-17v17v1.5v15.5v1.5v15.5v1.5v15.5v1.5v17h17H23.25z M74.25,6.251h15.5v15.5h-15.5V6.251z M74.25,23.251h15.5v15.5  h-15.5V23.251z M74.25,40.251h15.5v15.5h-15.5V40.251z M74.25,57.251h15.5v15.5h-15.5V57.251z M74.25,74.251h15.5v15.5h-15.5V74.251  z M57.25,6.251h15.5v15.5h-15.5V6.251z M57.25,23.251h15.5v15.5h-15.5V23.251z M57.25,74.251h15.5v15.5h-15.5V74.251z M40.25,23.251  h15.5v15.5h-15.5V23.251z M40.25,57.251h15.5v15.5h-15.5V57.251z M40.25,74.251h15.5v15.5h-15.5V74.251z M23.25,6.251h15.5v15.5  h-15.5V6.251z M23.25,23.251h15.5v15.5h-15.5V23.251z M23.25,40.251h15.5v15.5h-15.5V40.251z M23.25,57.251h15.5v15.5h-15.5V57.251z   M6.25,6.251h15.5v15.5H6.25V6.251z M6.25,23.251h15.5v15.5H6.25V23.251z M6.25,40.251h15.5v15.5H6.25V40.251z M6.25,57.251h15.5  v15.5H6.25V57.251z"/></svg>