<?xml version="1.0" standalone="no"?>
<!DOCTYPE svg PUBLIC "-//W3C//DTD SVG 20010904//EN"
 "http://www.w3.org/TR/2001/REC-SVG-20010904/DTD/svg10.dtd">
<svg version="1.0" xmlns="http://www.w3.org/2000/svg"
 width="825.000000pt" height="1280.000000pt" viewBox="0 0 825.000000 1280.000000"
 preserveAspectRatio="xMidYMid meet">
<g transform="translate(0.000000,1280.000000) scale(0.100000,-0.100000)"
fill="#000000" stroke="none">
<path d="M743 12332 c-8 -5 -63 -600 -173 -1887 -88 -1034 -166 -1940 -172
-2013 l-11 -132 23 -25 23 -25 347 0 347 0 27 133 c137 668 322 1147 524 1360
164 172 423 273 832 324 135 17 265 18 1830 18 1541 0 1685 -1 1684 -16 -1 -9
-89 -155 -196 -325 -2205 -3490 -3297 -5791 -3462 -7301 -18 -163 -21 -525 -6
-653 69 -569 326 -976 750 -1190 254 -128 518 -178 884 -167 280 8 481 48 685
136 643 277 931 953 882 2070 -7 152 -21 413 -31 581 -43 671 -51 852 -57
1275 -6 447 3 755 32 1125 169 2129 908 4028 2211 5687 l104 131 0 421 0 420
-24 28 -24 28 -3509 2 c-1929 2 -3513 -1 -3520 -5z"/>
</g>
</svg>
